<svg width="125" height="37" viewBox="0 0 125 37" fill="none" xmlns="http://www.w3.org/2000/svg">
<g opacity="0.6">
<path opacity="0.6" d="M57.9129 24.3487C58.1054 24.3487 58.2717 24.4234 58.4116 24.5727L59.803 26.0879C59.033 27.0454 58.0835 27.7788 56.9548 28.2882C55.8347 28.7977 54.4872 29.0524 52.9121 29.0524C51.5033 29.0524 50.2346 28.8109 49.1058 28.3278C47.9858 27.8446 47.0276 27.1727 46.2313 26.3119C45.435 25.4511 44.8225 24.4234 44.3938 23.2288C43.9737 22.0342 43.7637 20.7299 43.7637 19.3156C43.7637 17.8839 44 16.5751 44.4725 15.3893C44.945 14.1947 45.61 13.1671 46.4676 12.3062C47.3251 11.4454 48.3488 10.7778 49.5389 10.3035C50.7377 9.8204 52.059 9.57886 53.5028 9.57886C54.9116 9.57886 56.141 9.80721 57.191 10.264C58.2498 10.7119 59.1555 11.3093 59.908 12.0558L58.7267 13.7028C58.6567 13.8082 58.5648 13.9005 58.4511 13.9795C58.346 14.0586 58.1973 14.0981 58.0048 14.0981C57.8036 14.0981 57.5979 14.019 57.3879 13.861C57.1779 13.7028 56.911 13.5315 56.5872 13.3471C56.2635 13.1626 55.8522 12.9913 55.3535 12.8332C54.8634 12.6751 54.2378 12.596 53.4766 12.596C52.584 12.596 51.7615 12.7542 51.0089 13.0704C50.2652 13.3778 49.6221 13.8214 49.0795 14.4012C48.5458 14.9809 48.1258 15.688 47.8195 16.5224C47.522 17.3481 47.3732 18.2792 47.3732 19.3156C47.3732 20.3873 47.522 21.3403 47.8195 22.1748C48.1258 23.0092 48.537 23.7119 49.0532 24.2828C49.5695 24.8538 50.1777 25.293 50.8777 25.6004C51.5777 25.8991 52.3302 26.0484 53.1353 26.0484C53.6165 26.0484 54.0496 26.0221 54.4346 25.9693C54.8285 25.9166 55.1872 25.8332 55.5109 25.719C55.8435 25.6048 56.1541 25.4599 56.4429 25.2842C56.7403 25.0997 57.0335 24.8758 57.3223 24.6123C57.4098 24.5332 57.5016 24.4717 57.5979 24.4278C57.6942 24.3751 57.7991 24.3487 57.9129 24.3487Z" fill="#30424F"/>
<path opacity="0.6" d="M72.3219 28.8415H70.865C70.5588 28.8415 70.3182 28.7976 70.1432 28.7097C69.9682 28.6131 69.8369 28.4243 69.7494 28.1432L69.4606 27.1814C69.1194 27.4888 68.7825 27.7611 68.45 27.9982C68.1262 28.2267 67.7893 28.4199 67.4393 28.578C67.0893 28.7361 66.7174 28.8547 66.3236 28.9338C65.9299 29.0127 65.4924 29.0523 65.0111 29.0523C64.4424 29.0523 63.9174 28.9777 63.436 28.8283C62.9548 28.6703 62.5392 28.4375 62.1892 28.13C61.8479 27.8226 61.581 27.4405 61.3885 26.9837C61.196 26.527 61.0997 25.9956 61.0997 25.3895C61.0997 24.88 61.231 24.3794 61.4935 23.8874C61.7648 23.3868 62.211 22.9388 62.8323 22.5435C63.4536 22.1395 64.2805 21.8057 65.313 21.5422C66.3456 21.2787 67.6275 21.1293 69.1587 21.0943V20.3037C69.1587 19.3989 68.9662 18.7314 68.5812 18.301C68.2049 17.8618 67.6537 17.6422 66.9275 17.6422C66.4024 17.6422 65.9649 17.7037 65.6149 17.8267C65.2649 17.9497 64.9586 18.0902 64.6961 18.2483C64.4424 18.3976 64.2061 18.5338 63.9873 18.6568C63.7686 18.7797 63.5279 18.8412 63.2654 18.8412C63.0467 18.8412 62.8585 18.7841 62.701 18.6699C62.5436 18.5557 62.4166 18.4152 62.3204 18.2483L61.7298 17.2074C63.2786 15.7844 65.1468 15.073 67.3343 15.073C68.1218 15.073 68.8218 15.2048 69.4343 15.4683C70.0557 15.723 70.5807 16.0831 71.0094 16.5487C71.4382 17.0054 71.7619 17.5544 71.9807 18.1956C72.2082 18.8368 72.3219 19.5395 72.3219 20.3037V28.8415ZM66.0218 26.8125C66.3543 26.8125 66.6605 26.7817 66.9405 26.7202C67.2206 26.6587 67.4831 26.5665 67.7281 26.4435C67.9819 26.3206 68.2225 26.1712 68.45 25.9956C68.6862 25.8111 68.9225 25.5959 69.1587 25.35V23.0705C68.2137 23.1145 67.4218 23.198 66.7831 23.3209C66.153 23.4351 65.6455 23.5844 65.2605 23.7689C64.8754 23.9533 64.5998 24.1686 64.4336 24.4145C64.2761 24.6604 64.1973 24.9283 64.1973 25.2182C64.1973 25.7892 64.3636 26.1976 64.6961 26.4435C65.0374 26.6895 65.4792 26.8125 66.0218 26.8125Z" fill="#30424F"/>
<path opacity="0.6" d="M74.9847 28.8415V15.3233H76.8879C77.2205 15.3233 77.4524 15.3848 77.5836 15.5077C77.7149 15.6307 77.8024 15.8416 77.8461 16.1402L78.043 17.774C78.5242 16.9395 79.0887 16.2807 79.7362 15.7976C80.3838 15.3145 81.1097 15.073 81.915 15.073C82.5801 15.073 83.1314 15.2267 83.5689 15.5341L83.149 17.9716C83.1226 18.1297 83.0657 18.2439 82.9783 18.3142C82.891 18.3756 82.7724 18.4064 82.6234 18.4064C82.4928 18.4064 82.3133 18.3756 82.0857 18.3142C81.8581 18.2527 81.5561 18.2219 81.1803 18.2219C80.5064 18.2219 79.9287 18.4108 79.4474 18.7885C78.9662 19.1574 78.5593 19.702 78.2267 20.4223V28.8415H74.9847Z" fill="#30424F"/>
<path opacity="0.6" d="M94.6522 28.8416C94.2324 28.8416 93.9567 28.644 93.8253 28.2488L93.5625 26.9444C93.2829 27.2605 92.9896 27.546 92.6835 27.8007C92.3766 28.0555 92.0441 28.2751 91.6859 28.4596C91.3357 28.644 90.9551 28.7845 90.5441 28.8811C90.141 28.9866 89.7035 29.0393 89.2316 29.0393C88.496 29.0393 87.8221 28.8856 87.2099 28.5781C86.5978 28.2707 86.0681 27.8271 85.6218 27.2474C85.1843 26.6589 84.843 25.9342 84.5978 25.0734C84.3614 24.2126 84.2436 23.2288 84.2436 22.122C84.2436 21.1207 84.379 20.1897 84.6506 19.3289C84.9215 18.4681 85.3109 17.7214 85.8189 17.089C86.3261 16.4565 86.9343 15.9647 87.6434 15.6133C88.3518 15.2532 89.1482 15.0731 90.0321 15.0731C90.7845 15.0731 91.4279 15.1961 91.9615 15.442C92.4952 15.6792 92.972 15.9998 93.3918 16.4039V9.2627H96.6338V28.8416H94.6522ZM90.3341 26.4568C91.0072 26.4568 91.5809 26.3163 92.0529 26.0352C92.5256 25.7542 92.972 25.3545 93.3918 24.8362V18.7755C93.0248 18.3275 92.6218 18.0113 92.1843 17.8268C91.7556 17.6424 91.2917 17.5501 90.7933 17.5501C90.3029 17.5501 89.8566 17.6424 89.4543 17.8268C89.0609 18.0113 88.7236 18.2924 88.4439 18.67C88.1723 19.039 87.9623 19.5133 87.8133 20.093C87.6651 20.664 87.5905 21.3403 87.5905 22.122C87.5905 22.9126 87.6514 23.5846 87.774 24.138C87.9054 24.6825 88.0889 25.1305 88.3253 25.4819C88.5617 25.8245 88.851 26.0748 89.1915 26.2329C89.5328 26.3822 89.9135 26.4568 90.3341 26.4568Z" fill="#30424F"/>
<path opacity="0.6" d="M105.187 15.1125C106.035 15.1125 106.814 15.2487 107.523 15.521C108.24 15.7933 108.857 16.1929 109.373 16.72C109.89 17.2382 110.292 17.8794 110.581 18.6436C110.87 19.399 111.014 20.2642 111.014 21.2392C111.014 21.4852 111.002 21.6916 110.975 21.8585C110.957 22.0166 110.918 22.1439 110.857 22.2406C110.804 22.3284 110.73 22.3943 110.634 22.4382C110.538 22.4734 110.415 22.4909 110.266 22.4909H101.945C102.041 23.8787 102.413 24.8977 103.06 25.5477C103.708 26.1977 104.566 26.5226 105.633 26.5226C106.158 26.5226 106.609 26.4612 106.985 26.3382C107.37 26.2152 107.703 26.0791 107.982 25.9297C108.272 25.7805 108.521 25.6443 108.731 25.5213C108.949 25.3983 109.159 25.3369 109.361 25.3369C109.492 25.3369 109.606 25.3632 109.702 25.4159C109.798 25.4686 109.881 25.5432 109.951 25.6399L110.897 26.8257C110.538 27.2473 110.135 27.603 109.689 27.8929C109.243 28.174 108.774 28.4024 108.284 28.5781C107.803 28.745 107.308 28.8635 106.801 28.9338C106.302 29.004 105.816 29.0392 105.345 29.0392C104.408 29.0392 103.538 28.8855 102.732 28.5781C101.927 28.2619 101.228 27.8007 100.632 27.1946C100.037 26.5797 99.5689 25.8244 99.2275 24.9284C98.8862 24.0237 98.7163 22.9784 98.7163 21.7926C98.7163 20.8703 98.8645 20.0051 99.1618 19.197C99.4599 18.3801 99.8838 17.673 100.435 17.0757C100.995 16.4696 101.674 15.9909 102.47 15.6396C103.275 15.2882 104.18 15.1125 105.187 15.1125ZM105.252 17.4447C104.308 17.4447 103.568 17.7125 103.034 18.2484C102.501 18.7842 102.159 19.5439 102.01 20.5277H108.101C108.101 20.1061 108.044 19.7108 107.93 19.342C107.816 18.9642 107.641 18.6349 107.405 18.3537C107.169 18.0727 106.871 17.8531 106.513 17.695C106.154 17.5281 105.734 17.4447 105.252 17.4447Z" fill="#30424F"/>
<path opacity="0.6" d="M122.596 28.8416C122.175 28.8416 121.9 28.644 121.769 28.2488L121.506 26.9444C121.226 27.2605 120.933 27.546 120.627 27.8007C120.321 28.0555 119.988 28.2751 119.63 28.4596C119.28 28.644 118.899 28.7845 118.487 28.8811C118.085 28.9866 117.647 29.0393 117.175 29.0393C116.44 29.0393 115.766 28.8856 115.154 28.5781C114.541 28.2707 114.012 27.8271 113.566 27.2474C113.128 26.6589 112.787 25.9342 112.542 25.0734C112.305 24.2126 112.188 23.2288 112.188 22.122C112.188 21.1207 112.323 20.1897 112.595 19.3289C112.865 18.4681 113.255 17.7214 113.762 17.089C114.27 16.4565 114.878 15.9647 115.587 15.6133C116.296 15.2532 117.092 15.0731 117.976 15.0731C118.728 15.0731 119.371 15.1961 119.905 15.442C120.439 15.6792 120.916 15.9998 121.336 16.4039V9.2627H124.578V28.8416H122.596ZM118.277 26.4568C118.951 26.4568 119.524 26.3163 119.997 26.0352C120.47 25.7542 120.916 25.3545 121.336 24.8362V18.7755C120.968 18.3275 120.566 18.0113 120.128 17.8268C119.7 17.6424 119.236 17.5501 118.737 17.5501C118.247 17.5501 117.8 17.6424 117.398 17.8268C117.004 18.0113 116.667 18.2924 116.388 18.67C116.116 19.039 115.906 19.5133 115.757 20.093C115.609 20.664 115.534 21.3403 115.534 22.122C115.534 22.9126 115.595 23.5846 115.718 24.138C115.849 24.6825 116.033 25.1305 116.269 25.4819C116.506 25.8245 116.794 26.0748 117.135 26.2329C117.477 26.3822 117.857 26.4568 118.277 26.4568Z" fill="#30424F"/>
<path opacity="0.6" fill-rule="evenodd" clip-rule="evenodd" d="M7.1772 7.60306C7.76228 5.59285 9.85999 4.43937 11.8626 5.02669L24.4823 8.72791C26.4848 9.31525 27.6339 11.421 27.0489 13.4312L21.3981 32.8459C20.813 34.8561 18.7153 36.0096 16.7127 35.4223L4.09296 31.7211C2.09041 31.1337 0.941329 29.028 1.52642 27.0178L7.1772 7.60306ZM11.0476 7.82655C10.5855 7.69101 10.1014 7.9572 9.9664 8.42106L4.31559 27.8358C4.18058 28.2997 4.44574 28.7857 4.90787 28.9212L17.5276 32.6224C17.9898 32.758 18.4739 32.4918 18.6089 32.0279L24.2597 12.6132C24.3947 12.1492 24.1295 11.6633 23.6674 11.5278L11.0476 7.82655Z" fill="#30424F"/>
<path opacity="0.6" fill-rule="evenodd" clip-rule="evenodd" d="M15.0609 4.18948C15.646 2.17928 17.7436 1.02579 19.7462 1.61312L32.366 5.31435C34.3686 5.90167 35.5176 8.00738 34.9326 10.0176L29.2818 29.4323C28.6967 31.4425 26.599 32.5961 24.5964 32.0087L11.9767 28.3074C9.97409 27.7202 8.82506 25.6144 9.41015 23.6043L15.0609 4.18948ZM18.9313 4.41297C18.4692 4.27743 17.9851 4.54362 17.8501 5.00751L12.1993 24.4223C12.0643 24.8861 12.3295 25.3721 12.7916 25.5077L25.4114 29.2089C25.8735 29.3444 26.3576 29.0782 26.4926 28.6143L32.1434 9.19959C32.2784 8.73565 32.0132 8.24974 31.5511 8.11421L18.9313 4.41297Z" fill="#30424F"/>
</g>
</svg>
